<mxfile host="Electron" modified="2024-04-24T10:20:36.227Z" agent="Mozilla/5.0 (Windows NT 10.0; Win64; x64) AppleWebKit/537.36 (KHTML, like Gecko) draw.io/24.2.5 Chrome/120.0.6099.109 Electron/28.1.0 Safari/537.36" etag="qOnzycuY9BeZKLmKR9kF" version="24.2.5" type="device">
  <diagram name="Page-1" id="ezzvSLdIdcVg8Cf2IOfx">
    <mxGraphModel dx="3200" dy="1497" grid="1" gridSize="10" guides="1" tooltips="1" connect="1" arrows="1" fold="1" page="1" pageScale="1" pageWidth="1000" pageHeight="1000" math="0" shadow="0">
      <root>
        <mxCell id="0" />
        <mxCell id="1" parent="0" />
        <mxCell id="R4pQ3y30LR2KhfP-ZFfu-1" value="&lt;div style=&quot;text-align: center; box-sizing: border-box; width: 100%; background: rgb(228, 228, 228); padding: 2px; font-size: 14px;&quot;&gt;&lt;font color=&quot;#3333ff&quot;&gt;&lt;b&gt;approved_degrees&lt;/b&gt;&lt;/font&gt;&lt;/div&gt;&lt;table style=&quot;width: 100%; font-size: 14px;&quot; cellpadding=&quot;2&quot; cellspacing=&quot;0&quot;&gt;&lt;tbody&gt;&lt;tr&gt;&lt;td&gt;&lt;font style=&quot;font-size: 14px;&quot;&gt;PK&lt;/font&gt;&lt;/td&gt;&lt;td&gt;&lt;font style=&quot;font-size: 14px;&quot;&gt;id&lt;/font&gt;&lt;/td&gt;&lt;/tr&gt;&lt;tr&gt;&lt;td&gt;&lt;font style=&quot;font-size: 14px;&quot;&gt;FK&lt;/font&gt;&lt;/td&gt;&lt;td&gt;&lt;font style=&quot;font-size: 14px;&quot;&gt;course_id&lt;/font&gt;&lt;/td&gt;&lt;/tr&gt;&lt;tr&gt;&lt;td&gt;&lt;font style=&quot;font-size: 14px;&quot;&gt;FK&lt;/font&gt;&lt;/td&gt;&lt;td&gt;&lt;font style=&quot;font-size: 14px;&quot;&gt;degree_id&lt;/font&gt;&lt;/td&gt;&lt;/tr&gt;&lt;/tbody&gt;&lt;/table&gt;" style="verticalAlign=top;align=left;overflow=fill;html=1;whiteSpace=wrap;fillColor=#1ba1e2;fontColor=#ffffff;strokeColor=#006EAF;" vertex="1" parent="1">
          <mxGeometry x="500" y="140" width="180" height="90" as="geometry" />
        </mxCell>
        <mxCell id="R4pQ3y30LR2KhfP-ZFfu-2" value="&lt;div style=&quot;text-align: center; box-sizing: border-box; width: 100%; background: rgb(228, 228, 228); padding: 2px; font-size: 14px;&quot;&gt;&lt;font color=&quot;#3333ff&quot;&gt;&lt;b&gt;degrees&lt;/b&gt;&lt;/font&gt;&lt;/div&gt;&lt;table style=&quot;width: 100%; font-size: 14px;&quot; cellpadding=&quot;2&quot; cellspacing=&quot;0&quot;&gt;&lt;tbody&gt;&lt;tr&gt;&lt;td&gt;&lt;font style=&quot;font-size: 14px;&quot;&gt;PK&lt;/font&gt;&lt;/td&gt;&lt;td&gt;&lt;font style=&quot;font-size: 14px;&quot;&gt;id&lt;/font&gt;&lt;/td&gt;&lt;/tr&gt;&lt;tr&gt;&lt;td&gt;&lt;font style=&quot;font-size: 14px;&quot;&gt;FK&lt;/font&gt;&lt;/td&gt;&lt;td&gt;&lt;font style=&quot;font-size: 14px;&quot;&gt;course_id&lt;/font&gt;&lt;/td&gt;&lt;/tr&gt;&lt;tr&gt;&lt;td&gt;&lt;font style=&quot;font-size: 14px;&quot;&gt;FK&lt;/font&gt;&lt;/td&gt;&lt;td&gt;&lt;font style=&quot;font-size: 14px;&quot;&gt;degree_id&lt;/font&gt;&lt;/td&gt;&lt;/tr&gt;&lt;/tbody&gt;&lt;/table&gt;" style="verticalAlign=top;align=left;overflow=fill;html=1;whiteSpace=wrap;fillColor=#1ba1e2;fontColor=#ffffff;strokeColor=#006EAF;" vertex="1" parent="1">
          <mxGeometry x="70" y="140" width="180" height="90" as="geometry" />
        </mxCell>
        <mxCell id="R4pQ3y30LR2KhfP-ZFfu-3" value="" style="endArrow=none;html=1;edgeStyle=orthogonalEdgeStyle;rounded=0;exitX=1;exitY=0.25;exitDx=0;exitDy=0;entryX=-0.014;entryY=0.311;entryDx=0;entryDy=0;entryPerimeter=0;strokeWidth=2;" edge="1" parent="1" source="R4pQ3y30LR2KhfP-ZFfu-2" target="R4pQ3y30LR2KhfP-ZFfu-1">
          <mxGeometry relative="1" as="geometry">
            <mxPoint x="260" y="170" as="sourcePoint" />
            <mxPoint x="420" y="170" as="targetPoint" />
          </mxGeometry>
        </mxCell>
        <mxCell id="R4pQ3y30LR2KhfP-ZFfu-4" value="&lt;font style=&quot;font-size: 12px;&quot;&gt;&lt;b&gt;1&lt;/b&gt;&lt;/font&gt;" style="edgeLabel;resizable=0;html=1;align=left;verticalAlign=bottom;" connectable="0" vertex="1" parent="R4pQ3y30LR2KhfP-ZFfu-3">
          <mxGeometry x="-1" relative="1" as="geometry" />
        </mxCell>
        <mxCell id="R4pQ3y30LR2KhfP-ZFfu-5" value="&lt;b style=&quot;font-size: 12px;&quot;&gt;∞&lt;/b&gt;" style="edgeLabel;resizable=0;html=1;align=right;verticalAlign=bottom;" connectable="0" vertex="1" parent="R4pQ3y30LR2KhfP-ZFfu-3">
          <mxGeometry x="1" relative="1" as="geometry" />
        </mxCell>
        <mxCell id="R4pQ3y30LR2KhfP-ZFfu-6" value="&lt;div style=&quot;text-align: center; box-sizing: border-box; width: 100%; background: rgb(228, 228, 228); padding: 2px; font-size: 14px;&quot;&gt;&lt;font color=&quot;#3333ff&quot;&gt;&lt;b&gt;courses&lt;/b&gt;&lt;/font&gt;&lt;/div&gt;&lt;table style=&quot;width: 100%; font-size: 14px;&quot; cellpadding=&quot;2&quot; cellspacing=&quot;0&quot;&gt;&lt;tbody&gt;&lt;tr&gt;&lt;td&gt;&lt;font style=&quot;font-size: 14px;&quot;&gt;PK&lt;br&gt;&lt;br&gt;&lt;br&gt;&lt;br&gt;&lt;/font&gt;&lt;/td&gt;&lt;td&gt;&lt;font style=&quot;font-size: 14px;&quot;&gt;id&lt;br&gt;code&lt;br&gt;name&lt;br&gt;credit&lt;br&gt;&lt;/font&gt;&lt;/td&gt;&lt;/tr&gt;&lt;/tbody&gt;&lt;/table&gt;" style="verticalAlign=top;align=left;overflow=fill;html=1;whiteSpace=wrap;fillColor=#1ba1e2;fontColor=#ffffff;strokeColor=#006EAF;movable=1;resizable=1;rotatable=1;deletable=1;editable=1;locked=0;connectable=1;" vertex="1" parent="1">
          <mxGeometry x="70" y="300" width="180" height="100" as="geometry" />
        </mxCell>
        <mxCell id="R4pQ3y30LR2KhfP-ZFfu-10" value="&lt;div style=&quot;text-align: center; box-sizing: border-box; width: 100%; background: rgb(228, 228, 228); padding: 2px; font-size: 14px;&quot;&gt;&lt;font color=&quot;#3333ff&quot;&gt;&lt;b&gt;events&lt;/b&gt;&lt;/font&gt;&lt;/div&gt;&lt;table style=&quot;width: 100%; font-size: 14px;&quot; cellpadding=&quot;2&quot; cellspacing=&quot;0&quot;&gt;&lt;tbody&gt;&lt;tr&gt;&lt;td&gt;&lt;font style=&quot;font-size: 14px;&quot;&gt;PK&lt;br&gt;FK&lt;br&gt;&lt;br&gt;&lt;br&gt;&lt;/font&gt;&lt;/td&gt;&lt;td&gt;&lt;font style=&quot;font-size: 14px;&quot;&gt;id&lt;br&gt;course id&lt;br&gt;name&lt;br&gt;description&lt;/font&gt;&lt;/td&gt;&lt;/tr&gt;&lt;/tbody&gt;&lt;/table&gt;" style="verticalAlign=top;align=left;overflow=fill;html=1;whiteSpace=wrap;fillColor=#1ba1e2;fontColor=#ffffff;strokeColor=#006EAF;movable=1;resizable=1;rotatable=1;deletable=1;editable=1;locked=0;connectable=1;" vertex="1" parent="1">
          <mxGeometry x="500" y="300" width="180" height="100" as="geometry" />
        </mxCell>
        <mxCell id="R4pQ3y30LR2KhfP-ZFfu-11" value="" style="endArrow=none;html=1;edgeStyle=orthogonalEdgeStyle;rounded=0;strokeWidth=2;exitX=1.011;exitY=0.372;exitDx=0;exitDy=0;entryX=-0.026;entryY=0.513;entryDx=0;entryDy=0;entryPerimeter=0;exitPerimeter=0;" edge="1" parent="1" source="R4pQ3y30LR2KhfP-ZFfu-6" target="R4pQ3y30LR2KhfP-ZFfu-10">
          <mxGeometry relative="1" as="geometry">
            <mxPoint x="260" y="330" as="sourcePoint" />
            <mxPoint x="430" y="330" as="targetPoint" />
          </mxGeometry>
        </mxCell>
        <mxCell id="R4pQ3y30LR2KhfP-ZFfu-12" value="&lt;font style=&quot;font-size: 12px;&quot;&gt;&lt;b&gt;1&lt;/b&gt;&lt;/font&gt;" style="edgeLabel;resizable=0;html=1;align=left;verticalAlign=bottom;" connectable="0" vertex="1" parent="R4pQ3y30LR2KhfP-ZFfu-11">
          <mxGeometry x="-1" relative="1" as="geometry">
            <mxPoint y="23" as="offset" />
          </mxGeometry>
        </mxCell>
        <mxCell id="R4pQ3y30LR2KhfP-ZFfu-13" value="&lt;font style=&quot;font-size: 12px;&quot;&gt;&lt;b&gt;∞&lt;/b&gt;&lt;/font&gt;" style="edgeLabel;resizable=0;html=1;align=right;verticalAlign=bottom;" connectable="0" vertex="1" parent="R4pQ3y30LR2KhfP-ZFfu-11">
          <mxGeometry x="1" relative="1" as="geometry" />
        </mxCell>
        <mxCell id="R4pQ3y30LR2KhfP-ZFfu-14" value="&lt;div style=&quot;text-align: center; box-sizing: border-box; width: 100%; background: rgb(228, 228, 228); padding: 2px; font-size: 14px;&quot;&gt;&lt;font color=&quot;#3333ff&quot;&gt;&lt;b&gt;mycourses&lt;/b&gt;&lt;/font&gt;&lt;/div&gt;&lt;table style=&quot;width: 100%; font-size: 14px;&quot; cellpadding=&quot;2&quot; cellspacing=&quot;0&quot;&gt;&lt;tbody&gt;&lt;tr&gt;&lt;td&gt;&lt;font style=&quot;font-size: 14px;&quot;&gt;PK&lt;br&gt;FK&lt;br&gt;FK&lt;/font&gt;&lt;/td&gt;&lt;td&gt;&lt;font style=&quot;font-size: 14px;&quot;&gt;id&lt;br&gt;user_id&lt;br&gt;course_id&lt;br&gt;&lt;/font&gt;&lt;/td&gt;&lt;/tr&gt;&lt;/tbody&gt;&lt;/table&gt;" style="verticalAlign=top;align=left;overflow=fill;html=1;whiteSpace=wrap;fillColor=#1ba1e2;fontColor=#ffffff;strokeColor=#006EAF;movable=1;resizable=1;rotatable=1;deletable=1;editable=1;locked=0;connectable=1;" vertex="1" parent="1">
          <mxGeometry x="70" y="470" width="180" height="80" as="geometry" />
        </mxCell>
        <mxCell id="R4pQ3y30LR2KhfP-ZFfu-15" value="" style="endArrow=none;html=1;edgeStyle=orthogonalEdgeStyle;rounded=0;exitX=-0.026;exitY=0.272;exitDx=0;exitDy=0;exitPerimeter=0;strokeWidth=2;entryX=0.011;entryY=0.829;entryDx=0;entryDy=0;entryPerimeter=0;" edge="1" parent="1" source="R4pQ3y30LR2KhfP-ZFfu-6" target="R4pQ3y30LR2KhfP-ZFfu-14">
          <mxGeometry relative="1" as="geometry">
            <mxPoint x="20" y="331" as="sourcePoint" />
            <mxPoint x="20" y="540" as="targetPoint" />
            <Array as="points">
              <mxPoint x="20" y="327" />
              <mxPoint x="20" y="536" />
            </Array>
          </mxGeometry>
        </mxCell>
        <mxCell id="R4pQ3y30LR2KhfP-ZFfu-16" value="&lt;font style=&quot;font-size: 12px;&quot;&gt;&lt;b&gt;1&lt;/b&gt;&lt;/font&gt;" style="edgeLabel;resizable=0;html=1;align=left;verticalAlign=bottom;" connectable="0" vertex="1" parent="R4pQ3y30LR2KhfP-ZFfu-15">
          <mxGeometry x="-1" relative="1" as="geometry">
            <mxPoint x="-5" as="offset" />
          </mxGeometry>
        </mxCell>
        <mxCell id="R4pQ3y30LR2KhfP-ZFfu-17" value="&lt;b style=&quot;font-size: 12px;&quot;&gt;∞&lt;/b&gt;" style="edgeLabel;resizable=0;html=1;align=right;verticalAlign=bottom;" connectable="0" vertex="1" parent="R4pQ3y30LR2KhfP-ZFfu-15">
          <mxGeometry x="1" relative="1" as="geometry">
            <mxPoint x="-2" y="24" as="offset" />
          </mxGeometry>
        </mxCell>
        <mxCell id="R4pQ3y30LR2KhfP-ZFfu-18" value="" style="endArrow=none;html=1;edgeStyle=orthogonalEdgeStyle;rounded=0;strokeWidth=2;exitX=1.016;exitY=0.322;exitDx=0;exitDy=0;exitPerimeter=0;entryX=0;entryY=0.5;entryDx=0;entryDy=0;" edge="1" parent="1" source="R4pQ3y30LR2KhfP-ZFfu-6" target="R4pQ3y30LR2KhfP-ZFfu-1">
          <mxGeometry relative="1" as="geometry">
            <mxPoint x="260" y="320" as="sourcePoint" />
            <mxPoint x="358" y="190" as="targetPoint" />
          </mxGeometry>
        </mxCell>
        <mxCell id="R4pQ3y30LR2KhfP-ZFfu-19" value="&lt;font style=&quot;font-size: 12px;&quot;&gt;&lt;b&gt;1&lt;/b&gt;&lt;/font&gt;" style="edgeLabel;resizable=0;html=1;align=left;verticalAlign=bottom;" connectable="0" vertex="1" parent="R4pQ3y30LR2KhfP-ZFfu-18">
          <mxGeometry x="-1" relative="1" as="geometry" />
        </mxCell>
        <mxCell id="R4pQ3y30LR2KhfP-ZFfu-20" value="&lt;font style=&quot;font-size: 12px;&quot;&gt;&lt;b&gt;∞&lt;/b&gt;&lt;/font&gt;" style="edgeLabel;resizable=0;html=1;align=right;verticalAlign=bottom;" connectable="0" vertex="1" parent="R4pQ3y30LR2KhfP-ZFfu-18">
          <mxGeometry x="1" relative="1" as="geometry" />
        </mxCell>
        <mxCell id="R4pQ3y30LR2KhfP-ZFfu-21" value="&lt;div style=&quot;text-align: center; box-sizing: border-box; width: 100%; background: rgb(228, 228, 228); padding: 2px; font-size: 14px;&quot;&gt;&lt;font color=&quot;#3333ff&quot;&gt;&lt;b&gt;users&lt;/b&gt;&lt;/font&gt;&lt;/div&gt;&lt;table style=&quot;width: 100%; font-size: 14px;&quot; cellpadding=&quot;2&quot; cellspacing=&quot;0&quot;&gt;&lt;tbody&gt;&lt;tr&gt;&lt;td&gt;&lt;font style=&quot;font-size: 14px;&quot;&gt;PK&lt;br&gt;&lt;br&gt;&lt;br&gt;&lt;br&gt;FK&lt;br&gt;&lt;br&gt;&lt;/font&gt;&lt;/td&gt;&lt;td&gt;&lt;font style=&quot;font-size: 14px;&quot;&gt;id&lt;br&gt;username&lt;br&gt;name&lt;br&gt;password&lt;br&gt;degree_id&lt;br&gt;user_type&lt;/font&gt;&lt;/td&gt;&lt;/tr&gt;&lt;/tbody&gt;&lt;/table&gt;" style="verticalAlign=top;align=left;overflow=fill;html=1;whiteSpace=wrap;fillColor=#1ba1e2;fontColor=#ffffff;strokeColor=#006EAF;movable=1;resizable=1;rotatable=1;deletable=1;editable=1;locked=0;connectable=1;" vertex="1" parent="1">
          <mxGeometry x="500" y="470" width="180" height="130" as="geometry" />
        </mxCell>
        <mxCell id="R4pQ3y30LR2KhfP-ZFfu-22" value="" style="endArrow=none;html=1;edgeStyle=orthogonalEdgeStyle;rounded=0;strokeWidth=2;exitX=1.002;exitY=0.631;exitDx=0;exitDy=0;exitPerimeter=0;entryX=0;entryY=0.25;entryDx=0;entryDy=0;" edge="1" parent="1" source="R4pQ3y30LR2KhfP-ZFfu-14" target="R4pQ3y30LR2KhfP-ZFfu-21">
          <mxGeometry relative="1" as="geometry">
            <mxPoint x="270" y="520" as="sourcePoint" />
            <mxPoint x="473" y="521" as="targetPoint" />
          </mxGeometry>
        </mxCell>
        <mxCell id="R4pQ3y30LR2KhfP-ZFfu-23" value="&lt;font style=&quot;font-size: 12px;&quot;&gt;&lt;b&gt;∞&lt;/b&gt;&lt;/font&gt;" style="edgeLabel;resizable=0;html=1;align=left;verticalAlign=bottom;" connectable="0" vertex="1" parent="R4pQ3y30LR2KhfP-ZFfu-22">
          <mxGeometry x="-1" relative="1" as="geometry">
            <mxPoint y="23" as="offset" />
          </mxGeometry>
        </mxCell>
        <mxCell id="R4pQ3y30LR2KhfP-ZFfu-24" value="&lt;font style=&quot;font-size: 12px;&quot;&gt;&lt;b&gt;1&lt;/b&gt;&lt;/font&gt;" style="edgeLabel;resizable=0;html=1;align=right;verticalAlign=bottom;" connectable="0" vertex="1" parent="R4pQ3y30LR2KhfP-ZFfu-22">
          <mxGeometry x="1" relative="1" as="geometry" />
        </mxCell>
        <mxCell id="R4pQ3y30LR2KhfP-ZFfu-25" value="" style="endArrow=none;html=1;edgeStyle=orthogonalEdgeStyle;rounded=0;strokeWidth=2;entryX=0;entryY=0.75;entryDx=0;entryDy=0;exitX=0.998;exitY=0.347;exitDx=0;exitDy=0;exitPerimeter=0;" edge="1" parent="1" source="R4pQ3y30LR2KhfP-ZFfu-2" target="R4pQ3y30LR2KhfP-ZFfu-21">
          <mxGeometry relative="1" as="geometry">
            <mxPoint x="260" y="175" as="sourcePoint" />
            <mxPoint x="473" y="570" as="targetPoint" />
            <Array as="points">
              <mxPoint x="330" y="171" />
              <mxPoint x="330" y="568" />
            </Array>
          </mxGeometry>
        </mxCell>
        <mxCell id="R4pQ3y30LR2KhfP-ZFfu-26" value="&lt;font style=&quot;font-size: 12px;&quot;&gt;&lt;b&gt;1&lt;/b&gt;&lt;/font&gt;" style="edgeLabel;resizable=0;html=1;align=left;verticalAlign=bottom;" connectable="0" vertex="1" parent="R4pQ3y30LR2KhfP-ZFfu-25">
          <mxGeometry x="-1" relative="1" as="geometry">
            <mxPoint y="23" as="offset" />
          </mxGeometry>
        </mxCell>
        <mxCell id="R4pQ3y30LR2KhfP-ZFfu-27" value="&lt;font style=&quot;font-size: 12px;&quot;&gt;&lt;b&gt;∞&lt;/b&gt;&lt;/font&gt;" style="edgeLabel;resizable=0;html=1;align=right;verticalAlign=bottom;" connectable="0" vertex="1" parent="R4pQ3y30LR2KhfP-ZFfu-25">
          <mxGeometry x="1" relative="1" as="geometry" />
        </mxCell>
        <mxCell id="R4pQ3y30LR2KhfP-ZFfu-28" style="edgeStyle=orthogonalEdgeStyle;rounded=0;orthogonalLoop=1;jettySize=auto;html=1;exitX=0.5;exitY=0;exitDx=0;exitDy=0;entryX=0.502;entryY=0.125;entryDx=0;entryDy=0;entryPerimeter=0;" edge="1" parent="1" source="R4pQ3y30LR2KhfP-ZFfu-14" target="R4pQ3y30LR2KhfP-ZFfu-14">
          <mxGeometry relative="1" as="geometry" />
        </mxCell>
        <mxCell id="R4pQ3y30LR2KhfP-ZFfu-29" value="&lt;div style=&quot;text-align: center; box-sizing: border-box; width: 100%; background: rgb(228, 228, 228); padding: 2px; font-size: 14px;&quot;&gt;&lt;font color=&quot;#3333ff&quot;&gt;&lt;b&gt;tokens&lt;/b&gt;&lt;/font&gt;&lt;/div&gt;&lt;table style=&quot;width: 100%; font-size: 14px;&quot; cellpadding=&quot;2&quot; cellspacing=&quot;0&quot;&gt;&lt;tbody&gt;&lt;tr&gt;&lt;td&gt;&lt;font style=&quot;font-size: 14px;&quot;&gt;PK&lt;br&gt;FK&lt;br&gt;&lt;br&gt;&lt;/font&gt;&lt;/td&gt;&lt;td&gt;&lt;font style=&quot;font-size: 14px;&quot;&gt;token&lt;br&gt;user_id&lt;br&gt;expire_datetime&lt;/font&gt;&lt;/td&gt;&lt;/tr&gt;&lt;/tbody&gt;&lt;/table&gt;" style="verticalAlign=top;align=left;overflow=fill;html=1;whiteSpace=wrap;fillColor=#1ba1e2;fontColor=#ffffff;strokeColor=#006EAF;movable=1;resizable=1;rotatable=1;deletable=1;editable=1;locked=0;connectable=1;" vertex="1" parent="1">
          <mxGeometry x="70" y="610" width="180" height="80" as="geometry" />
        </mxCell>
        <mxCell id="R4pQ3y30LR2KhfP-ZFfu-30" value="" style="endArrow=none;html=1;edgeStyle=orthogonalEdgeStyle;rounded=0;strokeWidth=2;entryX=-0.004;entryY=0.362;entryDx=0;entryDy=0;entryPerimeter=0;exitX=1.001;exitY=0.623;exitDx=0;exitDy=0;exitPerimeter=0;" edge="1" parent="1" source="R4pQ3y30LR2KhfP-ZFfu-29" target="R4pQ3y30LR2KhfP-ZFfu-21">
          <mxGeometry relative="1" as="geometry">
            <mxPoint x="254.49" y="656" as="sourcePoint" />
            <mxPoint x="499.49" y="640" as="targetPoint" />
            <Array as="points">
              <mxPoint x="390" y="660" />
              <mxPoint x="390" y="517" />
            </Array>
          </mxGeometry>
        </mxCell>
        <mxCell id="R4pQ3y30LR2KhfP-ZFfu-31" value="&lt;font style=&quot;font-size: 12px;&quot;&gt;&lt;b&gt;∞&lt;/b&gt;&lt;/font&gt;" style="edgeLabel;resizable=0;html=1;align=left;verticalAlign=bottom;" connectable="0" vertex="1" parent="R4pQ3y30LR2KhfP-ZFfu-30">
          <mxGeometry x="-1" relative="1" as="geometry">
            <mxPoint y="23" as="offset" />
          </mxGeometry>
        </mxCell>
        <mxCell id="R4pQ3y30LR2KhfP-ZFfu-32" value="&lt;font style=&quot;font-size: 12px;&quot;&gt;&lt;b&gt;1&lt;/b&gt;&lt;/font&gt;" style="edgeLabel;resizable=0;html=1;align=right;verticalAlign=bottom;" connectable="0" vertex="1" parent="R4pQ3y30LR2KhfP-ZFfu-30">
          <mxGeometry x="1" relative="1" as="geometry">
            <mxPoint y="23" as="offset" />
          </mxGeometry>
        </mxCell>
      </root>
    </mxGraphModel>
  </diagram>
</mxfile>
